<svg width="110" height="50" viewBox="0 0 110 50" fill="none" xmlns="http://www.w3.org/2000/svg">
<rect width="50" height="50" fill="#29A5FF"/>
<g clip-path="url(#clip0_411_2962)">
<path fill-rule="evenodd" clip-rule="evenodd" d="M33.84 19.0559C33.8836 18.7912 33.8555 18.5197 33.7585 18.2696C33.6615 18.0195 33.4992 17.8 33.2885 17.6339C33.0778 17.4679 32.8264 17.3614 32.5606 17.3255C32.2948 17.2896 32.0242 17.3257 31.777 17.4299L14.677 24.6299C13.485 25.1319 13.424 26.8559 14.677 27.3759C15.9177 27.8934 17.1765 28.3663 18.451 28.7939C19.619 29.1799 20.893 29.5369 21.914 29.6379C22.193 29.9719 22.544 30.2929 22.902 30.5879C23.449 31.0379 24.107 31.5009 24.787 31.9449C26.149 32.8349 27.66 33.6859 28.678 34.2399C29.895 34.8999 31.352 34.1399 31.57 32.8129L33.84 19.0559ZM16.594 25.9919L31.718 19.6249L29.6 32.4649C28.601 31.9219 27.162 31.1089 25.88 30.2709C25.2891 29.8916 24.7187 29.4813 24.171 29.0419C24.0246 28.9224 23.8825 28.7976 23.745 28.6679L27.706 24.7079C27.8936 24.5204 27.9991 24.2661 27.9992 24.0008C27.9993 23.7355 27.894 23.4811 27.7065 23.2934C27.519 23.1058 27.2646 23.0003 26.9994 23.0002C26.7341 23.0001 26.4796 23.1054 26.292 23.2929L21.955 27.6299C21.221 27.5359 20.199 27.2639 19.077 26.8939C18.2417 26.6157 17.4141 26.3149 16.595 25.9919H16.594Z" fill="white"/>
</g>
<rect x="60" width="50" height="50" fill="#2DB84B"/>
<g clip-path="url(#clip1_411_2962)">
<path d="M84 15C89.523 15 94 19.477 94 25C94 30.523 89.523 35 84 35C82.298 35.0025 80.6237 34.5687 79.137 33.74L78.832 33.562L75.8 34.454C75.635 34.5026 75.4603 34.5083 75.2925 34.4705C75.1247 34.4327 74.9693 34.3526 74.8411 34.238C74.7129 34.1233 74.6162 33.9778 74.56 33.8152C74.5038 33.6526 74.49 33.4784 74.52 33.309L74.546 33.2L75.438 30.168C74.495 28.6093 73.9976 26.8218 74 25C74 19.477 78.477 15 84 15ZM84 17C82.5676 16.9997 81.1615 17.3841 79.9283 18.1128C78.6952 18.8416 77.6804 19.888 76.9898 21.1429C76.2992 22.3978 75.9582 23.8151 76.0024 25.2468C76.0466 26.6785 76.4743 28.0721 77.241 29.282C77.439 29.594 77.524 29.978 77.457 30.359L77.418 30.522L76.977 32.023L78.478 31.582C78.911 31.454 79.361 31.532 79.718 31.759C80.7663 32.4228 81.9547 32.8336 83.1892 32.959C84.4236 33.0844 85.6703 32.921 86.8307 32.4816C87.9911 32.0422 89.0334 31.3389 89.8752 30.4273C90.717 29.5157 91.3352 28.4208 91.6809 27.2291C92.0266 26.0374 92.0904 24.7817 91.8673 23.5611C91.6441 22.3405 91.14 21.1886 90.395 20.1964C89.65 19.2042 88.6843 18.3988 87.5744 17.8441C86.4645 17.2893 85.2408 17.0004 84 17ZM81.102 20.184C81.2127 20.1361 81.334 20.1178 81.4539 20.1309C81.5739 20.1441 81.6883 20.1882 81.786 20.259C82.29 20.627 82.69 21.121 83.034 21.603L83.361 22.077L83.514 22.302C83.6023 22.4311 83.6456 22.5856 83.6373 22.7418C83.629 22.8979 83.5695 23.047 83.468 23.166L83.393 23.242L82.469 23.928C82.4245 23.9602 82.3932 24.0074 82.3809 24.0609C82.3686 24.1144 82.3761 24.1706 82.402 24.219C82.612 24.599 82.983 25.166 83.409 25.592C83.836 26.018 84.429 26.414 84.835 26.647C84.923 26.697 85.029 26.681 85.101 26.616L85.139 26.571L85.74 25.656C85.8503 25.509 86.0133 25.4105 86.1947 25.381C86.3761 25.3516 86.5618 25.3935 86.713 25.498L87.256 25.877C87.796 26.262 88.315 26.676 88.726 27.201C88.8024 27.2995 88.851 27.4167 88.8667 27.5403C88.8823 27.664 88.8645 27.7896 88.815 27.904C88.419 28.828 87.416 29.615 86.374 29.577L86.215 29.567L86.024 29.549C85.988 29.5447 85.952 29.5401 85.916 29.535L85.678 29.495C84.754 29.321 83.273 28.797 81.738 27.263C80.204 25.728 79.68 24.247 79.506 23.323L79.466 23.085L79.441 22.877L79.428 22.702C79.4264 22.677 79.4251 22.652 79.424 22.627C79.386 21.583 80.177 20.58 81.102 20.184Z" fill="white"/>
</g>
<defs>
<clipPath id="clip0_411_2962">
<rect width="24" height="24" fill="white" transform="translate(12 13)"/>
</clipPath>
<clipPath id="clip1_411_2962">
<rect width="24" height="24" fill="white" transform="translate(72 13)"/>
</clipPath>
</defs>
</svg>
