<svg width="288" height="182" viewBox="0 0 288 182" fill="none" xmlns="http://www.w3.org/2000/svg">
<rect opacity="0.2" width="271" height="146" rx="20" transform="matrix(0.991189 -0.132454 -0.132454 -0.991189 19.3383 181.305)" fill="white"/>
<rect x="8.47498" y="18.002" width="271" height="146" rx="20" fill="white"/>
<path d="M44.4746 66C49.9975 66 54.4746 61.5228 54.4746 56C54.4746 50.4772 49.9975 46 44.4746 46C38.9518 46 34.4746 50.4772 34.4746 56C34.4746 61.5228 38.9518 66 44.4746 66Z" stroke="#9DA7E0" stroke-width="2" stroke-linecap="round" stroke-linejoin="round"/>
<path d="M50.8083 62.8571C50.6456 62.269 50.3169 61.7266 49.849 61.2899C49.1601 60.6469 48.2257 60.2856 47.2515 60.2856H41.7412C40.767 60.2856 39.8326 60.6469 39.1437 61.2899C38.7374 61.669 38.4362 62.1279 38.2573 62.6271" stroke="#9DA7E0" stroke-width="2" stroke-linecap="round" stroke-linejoin="round"/>
<path d="M44.4964 56.8569C46.1533 56.8569 47.4964 55.5138 47.4964 53.8569C47.4964 52.2001 46.1533 50.8569 44.4964 50.8569C42.8395 50.8569 41.4964 52.2001 41.4964 53.8569C41.4964 55.5138 42.8395 56.8569 44.4964 56.8569Z" stroke="#9DA7E0" stroke-width="2" stroke-linecap="round" stroke-linejoin="round"/>
<path d="M67.96 55H74.74V48.86H77.06V63H74.74V57.08H67.96V63H65.64V48.86H67.96V55ZM86.747 61.7C86.4004 62.1933 85.9404 62.56 85.367 62.8C84.7937 63.0267 84.1537 63.14 83.447 63.14C82.887 63.14 82.3737 63.0733 81.907 62.94C81.4537 62.8067 81.0537 62.6067 80.707 62.34C80.3604 62.06 80.087 61.72 79.887 61.32C79.687 60.9067 79.587 60.44 79.587 59.92C79.587 59.3467 79.7004 58.86 79.927 58.46C80.1537 58.0467 80.4604 57.7133 80.847 57.46C81.247 57.2067 81.7137 57.02 82.247 56.9C82.7804 56.7667 83.3404 56.7 83.927 56.7H86.627C86.627 55.9267 86.4537 55.3267 86.107 54.9C85.7604 54.4733 85.1537 54.2533 84.287 54.24C83.7804 54.24 83.3404 54.3267 82.967 54.5C82.607 54.6733 82.367 54.96 82.247 55.36H79.907C79.987 54.8 80.167 54.3267 80.447 53.94C80.7404 53.5533 81.087 53.2333 81.487 52.98C81.9004 52.7267 82.3537 52.5467 82.847 52.44C83.3537 52.3333 83.8604 52.28 84.367 52.28C85.0204 52.28 85.627 52.3667 86.187 52.54C86.747 52.7133 87.2337 53.0067 87.647 53.42C88.1137 53.9 88.427 54.4733 88.587 55.14C88.747 55.8067 88.827 56.5333 88.827 57.32V63H86.847L86.747 61.7ZM86.627 58.32H84.427C84.0404 58.32 83.6537 58.3533 83.267 58.42C82.8804 58.4733 82.547 58.6133 82.267 58.84C82.0004 59.0533 81.867 59.3667 81.867 59.78C81.867 60.2867 82.047 60.6733 82.407 60.94C82.7804 61.1933 83.2337 61.32 83.767 61.32C84.1804 61.32 84.5604 61.2667 84.907 61.16C85.267 61.0533 85.5737 60.88 85.827 60.64C86.0804 60.3867 86.2737 60.0733 86.407 59.7C86.5537 59.3133 86.627 58.8533 86.627 58.32ZM97.6458 57.98C97.7124 57.0733 97.7524 56.1733 97.7658 55.28C97.7924 54.3733 97.8191 53.4333 97.8458 52.46H105.726V63H103.426V54.44H99.9658C99.9391 55.0933 99.9124 55.7467 99.8858 56.4C99.8724 57.04 99.8458 57.68 99.8058 58.32C99.7924 58.56 99.7658 58.8467 99.7258 59.18C99.6991 59.5 99.6591 59.8267 99.6058 60.16C99.5524 60.48 99.4724 60.7867 99.3658 61.08C99.2591 61.36 99.1258 61.62 98.9658 61.86C98.6858 62.26 98.3124 62.5533 97.8458 62.74C97.3924 62.9133 96.8658 63 96.2658 63H95.7058V61.04C96.1058 61.04 96.4258 60.9467 96.6658 60.76C96.9191 60.56 97.1058 60.3133 97.2258 60.02C97.3591 59.7133 97.4524 59.3867 97.5058 59.04C97.5724 58.68 97.6191 58.3267 97.6458 57.98ZM110.329 63H108.209V52.46H110.489V59.7L115.849 52.46H117.909V63H115.629V55.9C115.615 55.9267 113.849 58.2933 110.329 63ZM120.396 63V52.46H122.676V56.8H127.356V52.46H129.636V63H127.356V58.78H122.676V63H120.396ZM134.235 63H132.115V52.46H134.395V59.7L139.755 52.46H141.815V63H139.535V55.9C139.522 55.9267 137.755 58.2933 134.235 63ZM146.423 63H144.303V52.46H146.583V59.7L151.943 52.46H154.003V63H151.723V55.9C151.709 55.9267 149.943 58.2933 146.423 63ZM161.881 52.46H166.381C166.847 52.46 167.321 52.4867 167.801 52.54C168.281 52.58 168.714 52.6933 169.101 52.88C169.501 53.0667 169.821 53.34 170.061 53.7C170.314 54.0467 170.447 54.52 170.461 55.12C170.461 55.5867 170.354 56.02 170.141 56.42C169.927 56.82 169.587 57.1467 169.121 57.4C169.761 57.5733 170.227 57.88 170.521 58.32C170.827 58.7467 170.981 59.26 170.981 59.86C170.981 60.42 170.867 60.9067 170.641 61.32C170.414 61.72 170.114 62.0467 169.741 62.3C169.367 62.54 168.934 62.72 168.441 62.84C167.947 62.9467 167.427 63 166.881 63H161.881V52.46ZM164.181 54.36V56.78H165.561C165.867 56.78 166.181 56.78 166.501 56.78C166.834 56.7667 167.127 56.72 167.381 56.64C167.647 56.56 167.861 56.4333 168.021 56.26C168.194 56.0867 168.281 55.84 168.281 55.52C168.281 55.24 168.214 55.0267 168.081 54.88C167.961 54.72 167.807 54.6 167.621 54.52C167.434 54.44 167.221 54.3933 166.981 54.38C166.754 54.3667 166.541 54.36 166.341 54.36H164.181ZM166.501 61.08C166.767 61.08 167.027 61.0667 167.281 61.04C167.547 61.0133 167.781 60.9533 167.981 60.86C168.194 60.7533 168.367 60.62 168.501 60.46C168.634 60.2867 168.701 60.06 168.701 59.78C168.701 59.2733 168.541 58.9333 168.221 58.76C167.914 58.5867 167.534 58.5 167.081 58.5H164.181V61.08H166.501ZM177.732 63.14C176.892 63.14 176.152 63.0133 175.512 62.76C174.885 62.4933 174.358 62.1267 173.932 61.66C173.518 61.18 173.205 60.6133 172.992 59.96C172.792 59.2933 172.692 58.56 172.692 57.76C172.692 56.96 172.798 56.2267 173.012 55.56C173.238 54.8933 173.572 54.32 174.012 53.84C174.452 53.36 174.985 52.98 175.612 52.7C176.238 52.42 176.965 52.28 177.792 52.28C178.378 52.28 178.918 52.3467 179.412 52.48C179.918 52.6 180.365 52.8067 180.752 53.1C181.138 53.38 181.472 53.74 181.752 54.18C182.032 54.6067 182.225 55.1267 182.332 55.74H179.972C179.852 55.2867 179.592 54.94 179.192 54.7C178.805 54.4467 178.325 54.32 177.752 54.32C177.245 54.32 176.812 54.4133 176.452 54.6C176.092 54.7867 175.798 55.04 175.572 55.36C175.345 55.68 175.178 56.0533 175.072 56.48C174.978 56.8933 174.932 57.3267 174.932 57.78C174.932 58.2467 174.985 58.6867 175.092 59.1C175.198 59.5133 175.365 59.8733 175.592 60.18C175.832 60.4733 176.132 60.7133 176.492 60.9C176.852 61.0733 177.285 61.16 177.792 61.16C178.392 61.16 178.885 61.0267 179.272 60.76C179.672 60.4933 179.925 60.14 180.032 59.7H182.372C182.265 60.3 182.065 60.82 181.772 61.26C181.492 61.7 181.145 62.06 180.732 62.34C180.318 62.62 179.858 62.8267 179.352 62.96C178.845 63.08 178.305 63.14 177.732 63.14ZM186.202 58.5C186.229 58.8867 186.309 59.2467 186.442 59.58C186.575 59.9133 186.755 60.2067 186.982 60.46C187.209 60.7 187.489 60.8933 187.822 61.04C188.169 61.1867 188.569 61.26 189.022 61.26C189.502 61.26 189.942 61.1733 190.342 61C190.755 60.8267 191.055 60.5267 191.242 60.1H193.582C193.449 60.6333 193.229 61.0933 192.922 61.48C192.629 61.8667 192.275 62.1867 191.862 62.44C191.462 62.68 191.015 62.86 190.522 62.98C190.042 63.0867 189.529 63.14 188.982 63.14C188.142 63.14 187.402 63.0133 186.762 62.76C186.135 62.5067 185.609 62.14 185.182 61.66C184.755 61.18 184.435 60.6133 184.222 59.96C184.022 59.2933 183.922 58.5467 183.922 57.72C183.922 56.92 184.035 56.1933 184.262 55.54C184.489 54.8733 184.815 54.3 185.242 53.82C185.682 53.34 186.209 52.9667 186.822 52.7C187.435 52.42 188.135 52.28 188.922 52.28C189.749 52.28 190.462 52.42 191.062 52.7C191.662 52.9667 192.162 53.3333 192.562 53.8C192.975 54.2667 193.282 54.8133 193.482 55.44C193.682 56.0667 193.782 56.7467 193.782 57.48C193.782 57.8267 193.762 58.1667 193.722 58.5H186.202ZM191.562 56.78C191.522 55.9533 191.262 55.3267 190.782 54.9C190.315 54.4733 189.702 54.26 188.942 54.26C188.515 54.26 188.142 54.3267 187.822 54.46C187.502 54.5933 187.229 54.7733 187.002 55C186.789 55.2267 186.615 55.4933 186.482 55.8C186.349 56.1067 186.262 56.4333 186.222 56.78H191.562ZM195.845 63V52.46H203.465V54.44H198.125V63H195.845ZM205.403 56.22C205.443 55.58 205.47 54.96 205.483 54.36C205.497 53.7467 205.503 53.1133 205.503 52.46H213.623V61.06H215.003V66.08H212.783V63H205.583V66.08H203.363V61.06C203.75 61.06 204.07 60.94 204.323 60.7C204.59 60.4467 204.77 60.1667 204.863 59.86C204.957 59.6467 205.037 59.36 205.103 59C205.17 58.6267 205.223 58.26 205.263 57.9C205.303 57.54 205.337 57.2067 205.363 56.9C205.39 56.5933 205.403 56.3667 205.403 56.22ZM211.343 54.44H207.583C207.557 54.92 207.537 55.44 207.523 56C207.51 56.56 207.49 57.1 207.463 57.62C207.437 57.8733 207.41 58.1467 207.383 58.44C207.37 58.7333 207.337 59.0333 207.283 59.34C207.23 59.6333 207.157 59.9267 207.063 60.22C206.97 60.5133 206.843 60.7933 206.683 61.06H211.343V54.44ZM223.388 61.7C223.041 62.1933 222.581 62.56 222.008 62.8C221.434 63.0267 220.794 63.14 220.088 63.14C219.528 63.14 219.014 63.0733 218.548 62.94C218.094 62.8067 217.694 62.6067 217.348 62.34C217.001 62.06 216.728 61.72 216.528 61.32C216.328 60.9067 216.228 60.44 216.228 59.92C216.228 59.3467 216.341 58.86 216.568 58.46C216.794 58.0467 217.101 57.7133 217.488 57.46C217.888 57.2067 218.354 57.02 218.888 56.9C219.421 56.7667 219.981 56.7 220.568 56.7H223.268C223.268 55.9267 223.094 55.3267 222.748 54.9C222.401 54.4733 221.794 54.2533 220.928 54.24C220.421 54.24 219.981 54.3267 219.608 54.5C219.248 54.6733 219.008 54.96 218.888 55.36H216.548C216.628 54.8 216.808 54.3267 217.088 53.94C217.381 53.5533 217.728 53.2333 218.128 52.98C218.541 52.7267 218.994 52.5467 219.488 52.44C219.994 52.3333 220.501 52.28 221.008 52.28C221.661 52.28 222.268 52.3667 222.828 52.54C223.388 52.7133 223.874 53.0067 224.288 53.42C224.754 53.9 225.068 54.4733 225.228 55.14C225.388 55.8067 225.468 56.5333 225.468 57.32V63H223.488L223.388 61.7ZM223.268 58.32H221.068C220.681 58.32 220.294 58.3533 219.908 58.42C219.521 58.4733 219.188 58.6133 218.908 58.84C218.641 59.0533 218.508 59.3667 218.508 59.78C218.508 60.2867 218.688 60.6733 219.048 60.94C219.421 61.1933 219.874 61.32 220.408 61.32C220.821 61.32 221.201 61.2667 221.548 61.16C221.908 61.0533 222.214 60.88 222.468 60.64C222.721 60.3867 222.914 60.0733 223.048 59.7C223.194 59.3133 223.268 58.8533 223.268 58.32ZM65.24 85V74.46H67.52V78.8H72.2V74.46H74.48V85H72.2V80.78H67.52V85H65.24ZM78.8388 80.5C78.8654 80.8867 78.9454 81.2467 79.0788 81.58C79.2121 81.9133 79.3921 82.2067 79.6188 82.46C79.8454 82.7 80.1254 82.8933 80.4588 83.04C80.8054 83.1867 81.2054 83.26 81.6588 83.26C82.1388 83.26 82.5788 83.1733 82.9788 83C83.3921 82.8267 83.6921 82.5267 83.8788 82.1H86.2188C86.0854 82.6333 85.8654 83.0933 85.5588 83.48C85.2654 83.8667 84.9121 84.1867 84.4988 84.44C84.0988 84.68 83.6521 84.86 83.1588 84.98C82.6788 85.0867 82.1654 85.14 81.6188 85.14C80.7788 85.14 80.0388 85.0133 79.3988 84.76C78.7721 84.5067 78.2454 84.14 77.8188 83.66C77.3921 83.18 77.0721 82.6133 76.8588 81.96C76.6588 81.2933 76.5588 80.5467 76.5588 79.72C76.5588 78.92 76.6721 78.1933 76.8988 77.54C77.1254 76.8733 77.4521 76.3 77.8788 75.82C78.3188 75.34 78.8454 74.9667 79.4588 74.7C80.0721 74.42 80.7721 74.28 81.5588 74.28C82.3854 74.28 83.0988 74.42 83.6988 74.7C84.2988 74.9667 84.7988 75.3333 85.1988 75.8C85.6121 76.2667 85.9188 76.8133 86.1188 77.44C86.3188 78.0667 86.4188 78.7467 86.4188 79.48C86.4188 79.8267 86.3988 80.1667 86.3588 80.5H78.8388ZM84.1988 78.78C84.1588 77.9533 83.8988 77.3267 83.4188 76.9C82.9521 76.4733 82.3388 76.26 81.5788 76.26C81.1521 76.26 80.7788 76.3267 80.4588 76.46C80.1388 76.5933 79.8654 76.7733 79.6388 77C79.4254 77.2267 79.2521 77.4933 79.1188 77.8C78.9854 78.1067 78.8988 78.4333 78.8588 78.78H84.1988ZM93.8728 74.46H96.6128L99.7928 79.48L102.953 74.46H105.633V85H103.393V77.44L100.053 82.64H99.5128L96.1128 77.44V85H93.8728V74.46ZM110.011 80.5C110.037 80.8867 110.117 81.2467 110.251 81.58C110.384 81.9133 110.564 82.2067 110.791 82.46C111.017 82.7 111.297 82.8933 111.631 83.04C111.977 83.1867 112.377 83.26 112.831 83.26C113.311 83.26 113.751 83.1733 114.151 83C114.564 82.8267 114.864 82.5267 115.051 82.1H117.391C117.257 82.6333 117.037 83.0933 116.731 83.48C116.437 83.8667 116.084 84.1867 115.671 84.44C115.271 84.68 114.824 84.86 114.331 84.98C113.851 85.0867 113.337 85.14 112.791 85.14C111.951 85.14 111.211 85.0133 110.571 84.76C109.944 84.5067 109.417 84.14 108.991 83.66C108.564 83.18 108.244 82.6133 108.031 81.96C107.831 81.2933 107.731 80.5467 107.731 79.72C107.731 78.92 107.844 78.1933 108.071 77.54C108.297 76.8733 108.624 76.3 109.051 75.82C109.491 75.34 110.017 74.9667 110.631 74.7C111.244 74.42 111.944 74.28 112.731 74.28C113.557 74.28 114.271 74.42 114.871 74.7C115.471 74.9667 115.971 75.3333 116.371 75.8C116.784 76.2667 117.091 76.8133 117.291 77.44C117.491 78.0667 117.591 78.7467 117.591 79.48C117.591 79.8267 117.571 80.1667 117.531 80.5H110.011ZM115.371 78.78C115.331 77.9533 115.071 77.3267 114.591 76.9C114.124 76.4733 113.511 76.26 112.751 76.26C112.324 76.26 111.951 76.3267 111.631 76.46C111.311 76.5933 111.037 76.7733 110.811 77C110.597 77.2267 110.424 77.4933 110.291 77.8C110.157 78.1067 110.071 78.4333 110.031 78.78H115.371ZM119.654 85V74.46H121.934V78.8H126.614V74.46H128.894V85H126.614V80.78H121.934V85H119.654ZM133.253 80.5C133.279 80.8867 133.359 81.2467 133.493 81.58C133.626 81.9133 133.806 82.2067 134.033 82.46C134.259 82.7 134.539 82.8933 134.873 83.04C135.219 83.1867 135.619 83.26 136.073 83.26C136.553 83.26 136.993 83.1733 137.393 83C137.806 82.8267 138.106 82.5267 138.293 82.1H140.633C140.499 82.6333 140.279 83.0933 139.973 83.48C139.679 83.8667 139.326 84.1867 138.913 84.44C138.513 84.68 138.066 84.86 137.573 84.98C137.093 85.0867 136.579 85.14 136.033 85.14C135.193 85.14 134.453 85.0133 133.813 84.76C133.186 84.5067 132.659 84.14 132.233 83.66C131.806 83.18 131.486 82.6133 131.273 81.96C131.073 81.2933 130.973 80.5467 130.973 79.72C130.973 78.92 131.086 78.1933 131.313 77.54C131.539 76.8733 131.866 76.3 132.293 75.82C132.733 75.34 133.259 74.9667 133.873 74.7C134.486 74.42 135.186 74.28 135.973 74.28C136.799 74.28 137.513 74.42 138.113 74.7C138.713 74.9667 139.213 75.3333 139.613 75.8C140.026 76.2667 140.333 76.8133 140.533 77.44C140.733 78.0667 140.833 78.7467 140.833 79.48C140.833 79.8267 140.813 80.1667 140.773 80.5H133.253ZM138.613 78.78C138.573 77.9533 138.313 77.3267 137.833 76.9C137.366 76.4733 136.753 76.26 135.993 76.26C135.566 76.26 135.193 76.3267 134.873 76.46C134.553 76.5933 134.279 76.7733 134.053 77C133.839 77.2267 133.666 77.4933 133.533 77.8C133.399 78.1067 133.313 78.4333 133.273 78.78H138.613ZM144.776 80.5C144.803 80.8867 144.883 81.2467 145.016 81.58C145.15 81.9133 145.33 82.2067 145.556 82.46C145.783 82.7 146.063 82.8933 146.396 83.04C146.743 83.1867 147.143 83.26 147.596 83.26C148.076 83.26 148.516 83.1733 148.916 83C149.33 82.8267 149.63 82.5267 149.816 82.1H152.156C152.023 82.6333 151.803 83.0933 151.496 83.48C151.203 83.8667 150.85 84.1867 150.436 84.44C150.036 84.68 149.59 84.86 149.096 84.98C148.616 85.0867 148.103 85.14 147.556 85.14C146.716 85.14 145.976 85.0133 145.336 84.76C144.71 84.5067 144.183 84.14 143.756 83.66C143.33 83.18 143.01 82.6133 142.796 81.96C142.596 81.2933 142.496 80.5467 142.496 79.72C142.496 78.92 142.61 78.1933 142.836 77.54C143.063 76.8733 143.39 76.3 143.816 75.82C144.256 75.34 144.783 74.9667 145.396 74.7C146.01 74.42 146.71 74.28 147.496 74.28C148.323 74.28 149.036 74.42 149.636 74.7C150.236 74.9667 150.736 75.3333 151.136 75.8C151.55 76.2667 151.856 76.8133 152.056 77.44C152.256 78.0667 152.356 78.7467 152.356 79.48C152.356 79.8267 152.336 80.1667 152.296 80.5H144.776ZM150.136 78.78C150.096 77.9533 149.836 77.3267 149.356 76.9C148.89 76.4733 148.276 76.26 147.516 76.26C147.09 76.26 146.716 76.3267 146.396 76.46C146.076 76.5933 145.803 76.7733 145.576 77C145.363 77.2267 145.19 77.4933 145.056 77.8C144.923 78.1067 144.836 78.4333 144.796 78.78H150.136Z" fill="#202020"/>
<path d="M108.41 114.105C107.78 114.105 107.225 114.01 106.745 113.82C106.275 113.62 105.88 113.345 105.56 112.995C105.25 112.635 105.015 112.21 104.855 111.72C104.705 111.22 104.63 110.67 104.63 110.07C104.63 109.47 104.71 108.92 104.87 108.42C105.04 107.92 105.29 107.49 105.62 107.13C105.95 106.77 106.35 106.485 106.82 106.275C107.29 106.065 107.835 105.96 108.455 105.96C108.895 105.96 109.3 106.01 109.67 106.11C110.05 106.2 110.385 106.355 110.675 106.575C110.965 106.785 111.215 107.055 111.425 107.385C111.635 107.705 111.78 108.095 111.86 108.555H110.09C110 108.215 109.805 107.955 109.505 107.775C109.215 107.585 108.855 107.49 108.425 107.49C108.045 107.49 107.72 107.56 107.45 107.7C107.18 107.84 106.96 108.03 106.79 108.27C106.62 108.51 106.495 108.79 106.415 109.11C106.345 109.42 106.31 109.745 106.31 110.085C106.31 110.435 106.35 110.765 106.43 111.075C106.51 111.385 106.635 111.655 106.805 111.885C106.985 112.105 107.21 112.285 107.48 112.425C107.75 112.555 108.075 112.62 108.455 112.62C108.905 112.62 109.275 112.52 109.565 112.32C109.865 112.12 110.055 111.855 110.135 111.525H111.89C111.81 111.975 111.66 112.365 111.44 112.695C111.23 113.025 110.97 113.295 110.66 113.505C110.35 113.715 110.005 113.87 109.625 113.97C109.245 114.06 108.84 114.105 108.41 114.105ZM116.908 105.96C117.538 105.96 118.093 106.06 118.573 106.26C119.053 106.46 119.458 106.74 119.788 107.1C120.128 107.45 120.383 107.875 120.553 108.375C120.723 108.875 120.808 109.43 120.808 110.04C120.808 110.66 120.723 111.22 120.553 111.72C120.393 112.21 120.148 112.635 119.818 112.995C119.488 113.355 119.078 113.63 118.588 113.82C118.108 114.01 117.548 114.105 116.908 114.105C116.278 114.105 115.723 114.01 115.243 113.82C114.763 113.62 114.358 113.345 114.028 112.995C113.708 112.635 113.463 112.205 113.293 111.705C113.133 111.205 113.053 110.65 113.053 110.04C113.053 109.43 113.133 108.875 113.293 108.375C113.463 107.875 113.713 107.45 114.043 107.1C114.373 106.74 114.778 106.46 115.258 106.26C115.738 106.06 116.288 105.96 116.908 105.96ZM116.908 112.62C117.298 112.62 117.628 112.555 117.898 112.425C118.178 112.285 118.403 112.1 118.573 111.87C118.753 111.64 118.883 111.37 118.963 111.06C119.053 110.75 119.098 110.415 119.098 110.055C119.098 109.695 119.053 109.36 118.963 109.05C118.883 108.73 118.753 108.455 118.573 108.225C118.403 107.995 118.178 107.815 117.898 107.685C117.628 107.555 117.298 107.49 116.908 107.49C116.528 107.49 116.198 107.555 115.918 107.685C115.648 107.815 115.423 107.995 115.243 108.225C115.073 108.455 114.943 108.73 114.853 109.05C114.773 109.36 114.733 109.695 114.733 110.055C114.733 110.415 114.773 110.75 114.853 111.06C114.943 111.37 115.073 111.64 115.243 111.87C115.423 112.1 115.648 112.285 115.918 112.425C116.198 112.555 116.528 112.62 116.908 112.62ZM128.527 106.095V107.58H125.857V114H124.162V107.58H121.492V106.095H128.527ZM131.22 117.075H129.51V106.095H131.13L131.22 107.22C131.51 106.81 131.885 106.5 132.345 106.29C132.815 106.07 133.305 105.96 133.815 105.96C134.355 105.96 134.84 106.06 135.27 106.26C135.7 106.45 136.065 106.72 136.365 107.07C136.675 107.42 136.905 107.845 137.055 108.345C137.215 108.835 137.295 109.395 137.295 110.025C137.295 110.615 137.22 111.16 137.07 111.66C136.92 112.16 136.695 112.595 136.395 112.965C136.105 113.325 135.74 113.605 135.3 113.805C134.87 114.005 134.345 114.105 133.725 114.105C133.245 114.105 132.785 114.03 132.345 113.88C131.915 113.72 131.54 113.46 131.22 113.1V117.075ZM133.455 112.62C133.825 112.62 134.145 112.555 134.415 112.425C134.685 112.285 134.905 112.1 135.075 111.87C135.255 111.64 135.385 111.37 135.465 111.06C135.555 110.75 135.6 110.415 135.6 110.055C135.6 109.695 135.555 109.36 135.465 109.05C135.385 108.73 135.255 108.455 135.075 108.225C134.905 107.995 134.68 107.815 134.4 107.685C134.13 107.555 133.805 107.49 133.425 107.49C133.085 107.49 132.77 107.56 132.48 107.7C132.2 107.84 131.965 108.025 131.775 108.255C131.585 108.485 131.44 108.76 131.34 109.08C131.25 109.39 131.205 109.71 131.205 110.04C131.205 110.4 131.25 110.74 131.34 111.06C131.43 111.37 131.565 111.64 131.745 111.87C131.935 112.09 132.17 112.27 132.45 112.41C132.73 112.55 133.065 112.62 133.455 112.62ZM144.467 106.095H146.342L144.062 112.74C143.772 113.56 143.507 114.285 143.267 114.915C143.037 115.545 142.762 116.07 142.442 116.49C142.122 116.91 141.727 117.225 141.257 117.435C140.797 117.655 140.192 117.765 139.442 117.765H139.187V116.235C139.227 116.235 139.267 116.235 139.307 116.235C139.607 116.235 139.872 116.2 140.102 116.13C140.342 116.06 140.557 115.955 140.747 115.815C140.937 115.675 141.102 115.49 141.242 115.26C141.382 115.04 141.512 114.785 141.632 114.495L138.047 106.095H140.057L142.517 112.35L144.467 106.095ZM148.236 108.915C148.266 108.435 148.286 107.97 148.296 107.52C148.306 107.06 148.311 106.585 148.311 106.095H154.401V112.545H155.436V116.31H153.771V114H148.371V116.31H146.706V112.545C146.996 112.545 147.236 112.455 147.426 112.275C147.626 112.085 147.761 111.875 147.831 111.645C147.901 111.485 147.961 111.27 148.011 111C148.061 110.72 148.101 110.445 148.131 110.175C148.161 109.905 148.186 109.655 148.206 109.425C148.226 109.195 148.236 109.025 148.236 108.915ZM152.691 107.58H149.871C149.851 107.94 149.836 108.33 149.826 108.75C149.816 109.17 149.801 109.575 149.781 109.965C149.761 110.155 149.741 110.36 149.721 110.58C149.711 110.8 149.686 111.025 149.646 111.255C149.606 111.475 149.551 111.695 149.481 111.915C149.411 112.135 149.316 112.345 149.196 112.545H152.691V107.58ZM156.624 114V106.095H158.334V109.35H161.844V106.095H163.554V114H161.844V110.835H158.334V114H156.624ZM167.003 114H165.413V106.095H167.123V111.525L171.143 106.095H172.688V114H170.978V108.675C170.968 108.695 169.643 110.47 167.003 114ZM174.554 114V106.095H176.249V109.32H177.464L179.489 106.095H181.439L178.934 109.86L181.634 114H179.654L177.569 110.805H176.249V114H174.554ZM187.55 113.025C187.29 113.395 186.945 113.67 186.515 113.85C186.085 114.02 185.605 114.105 185.075 114.105C184.655 114.105 184.27 114.055 183.92 113.955C183.58 113.855 183.28 113.705 183.02 113.505C182.76 113.295 182.555 113.04 182.405 112.74C182.255 112.43 182.18 112.08 182.18 111.69C182.18 111.26 182.265 110.895 182.435 110.595C182.605 110.285 182.835 110.035 183.125 109.845C183.425 109.655 183.775 109.515 184.175 109.425C184.575 109.325 184.995 109.275 185.435 109.275H187.46C187.46 108.695 187.33 108.245 187.07 107.925C186.81 107.605 186.355 107.44 185.705 107.43C185.325 107.43 184.995 107.495 184.715 107.625C184.445 107.755 184.265 107.97 184.175 108.27H182.42C182.48 107.85 182.615 107.495 182.825 107.205C183.045 106.915 183.305 106.675 183.605 106.485C183.915 106.295 184.255 106.16 184.625 106.08C185.005 106 185.385 105.96 185.765 105.96C186.255 105.96 186.71 106.025 187.13 106.155C187.55 106.285 187.915 106.505 188.225 106.815C188.575 107.175 188.81 107.605 188.93 108.105C189.05 108.605 189.11 109.15 189.11 109.74V114H187.625L187.55 113.025ZM187.46 110.49H185.81C185.52 110.49 185.23 110.515 184.94 110.565C184.65 110.605 184.4 110.71 184.19 110.88C183.99 111.04 183.89 111.275 183.89 111.585C183.89 111.965 184.025 112.255 184.295 112.455C184.575 112.645 184.915 112.74 185.315 112.74C185.625 112.74 185.91 112.7 186.17 112.62C186.44 112.54 186.67 112.41 186.86 112.23C187.05 112.04 187.195 111.805 187.295 111.525C187.405 111.235 187.46 110.89 187.46 110.49ZM108.485 123.96C109.115 123.96 109.67 124.06 110.15 124.26C110.63 124.46 111.035 124.74 111.365 125.1C111.705 125.45 111.96 125.875 112.13 126.375C112.3 126.875 112.385 127.43 112.385 128.04C112.385 128.66 112.3 129.22 112.13 129.72C111.97 130.21 111.725 130.635 111.395 130.995C111.065 131.355 110.655 131.63 110.165 131.82C109.685 132.01 109.125 132.105 108.485 132.105C107.855 132.105 107.3 132.01 106.82 131.82C106.34 131.62 105.935 131.345 105.605 130.995C105.285 130.635 105.04 130.205 104.87 129.705C104.71 129.205 104.63 128.65 104.63 128.04C104.63 127.43 104.71 126.875 104.87 126.375C105.04 125.875 105.29 125.45 105.62 125.1C105.95 124.74 106.355 124.46 106.835 124.26C107.315 124.06 107.865 123.96 108.485 123.96ZM108.485 130.62C108.875 130.62 109.205 130.555 109.475 130.425C109.755 130.285 109.98 130.1 110.15 129.87C110.33 129.64 110.46 129.37 110.54 129.06C110.63 128.75 110.675 128.415 110.675 128.055C110.675 127.695 110.63 127.36 110.54 127.05C110.46 126.73 110.33 126.455 110.15 126.225C109.98 125.995 109.755 125.815 109.475 125.685C109.205 125.555 108.875 125.49 108.485 125.49C108.105 125.49 107.775 125.555 107.495 125.685C107.225 125.815 107 125.995 106.82 126.225C106.65 126.455 106.52 126.73 106.43 127.05C106.35 127.36 106.31 127.695 106.31 128.055C106.31 128.415 106.35 128.75 106.43 129.06C106.52 129.37 106.65 129.64 106.82 129.87C107 130.1 107.225 130.285 107.495 130.425C107.775 130.555 108.105 130.62 108.485 130.62ZM113.939 132V124.095H115.649V127.35H119.159V124.095H120.869V132H119.159V128.835H115.649V132H113.939ZM123.463 128.235C123.513 127.555 123.543 126.88 123.553 126.21C123.573 125.53 123.593 124.825 123.613 124.095H129.523V132H127.798V125.58H125.203C125.183 126.07 125.163 126.56 125.143 127.05C125.133 127.53 125.113 128.01 125.083 128.49C125.073 128.67 125.053 128.885 125.023 129.135C125.003 129.375 124.973 129.62 124.933 129.87C124.893 130.11 124.833 130.34 124.753 130.56C124.673 130.77 124.573 130.965 124.453 131.145C124.243 131.445 123.963 131.665 123.613 131.805C123.273 131.935 122.878 132 122.428 132H122.008V130.53C122.308 130.53 122.548 130.46 122.728 130.32C122.918 130.17 123.058 129.985 123.148 129.765C123.248 129.535 123.318 129.29 123.358 129.03C123.408 128.76 123.443 128.495 123.463 128.235ZM136.485 131.025C136.225 131.395 135.88 131.67 135.45 131.85C135.02 132.02 134.54 132.105 134.01 132.105C133.59 132.105 133.205 132.055 132.855 131.955C132.515 131.855 132.215 131.705 131.955 131.505C131.695 131.295 131.49 131.04 131.34 130.74C131.19 130.43 131.115 130.08 131.115 129.69C131.115 129.26 131.2 128.895 131.37 128.595C131.54 128.285 131.77 128.035 132.06 127.845C132.36 127.655 132.71 127.515 133.11 127.425C133.51 127.325 133.93 127.275 134.37 127.275H136.395C136.395 126.695 136.265 126.245 136.005 125.925C135.745 125.605 135.29 125.44 134.64 125.43C134.26 125.43 133.93 125.495 133.65 125.625C133.38 125.755 133.2 125.97 133.11 126.27H131.355C131.415 125.85 131.55 125.495 131.76 125.205C131.98 124.915 132.24 124.675 132.54 124.485C132.85 124.295 133.19 124.16 133.56 124.08C133.94 124 134.32 123.96 134.7 123.96C135.19 123.96 135.645 124.025 136.065 124.155C136.485 124.285 136.85 124.505 137.16 124.815C137.51 125.175 137.745 125.605 137.865 126.105C137.985 126.605 138.045 127.15 138.045 127.74V132H136.56L136.485 131.025ZM136.395 128.49H134.745C134.455 128.49 134.165 128.515 133.875 128.565C133.585 128.605 133.335 128.71 133.125 128.88C132.925 129.04 132.825 129.275 132.825 129.585C132.825 129.965 132.96 130.255 133.23 130.455C133.51 130.645 133.85 130.74 134.25 130.74C134.56 130.74 134.845 130.7 135.105 130.62C135.375 130.54 135.605 130.41 135.795 130.23C135.985 130.04 136.13 129.805 136.23 129.525C136.34 129.235 136.395 128.89 136.395 128.49ZM143.646 121.98C143.996 121.98 144.286 121.9 144.516 121.74C144.746 121.58 144.876 121.325 144.906 120.975H146.406C146.336 121.755 146.056 122.325 145.566 122.685C145.086 123.045 144.446 123.225 143.646 123.225C142.826 123.225 142.171 123.045 141.681 122.685C141.201 122.325 140.931 121.755 140.871 120.975H142.371C142.411 121.325 142.541 121.58 142.761 121.74C142.991 121.9 143.286 121.98 143.646 121.98ZM141.471 132H139.881V124.095H141.591V129.525L145.611 124.095H147.156V132H145.446V126.69C145.436 126.71 144.111 128.48 141.471 132ZM149.022 132V124.095H150.732V127.35H154.242V124.095H155.952V132H154.242V128.835H150.732V132H149.022Z" fill="#72798C"/>
<path d="M66.689 112.568C66.869 110.624 67.319 108.968 68.039 107.6C68.759 106.232 69.713 105.062 70.901 104.09C72.125 103.118 73.529 102.416 75.113 101.984C76.733 101.516 78.551 101.282 80.567 101.282C82.187 101.282 83.717 101.462 85.157 101.822C86.633 102.146 87.965 102.704 89.153 103.496C90.377 104.288 91.349 105.332 92.069 106.628C92.825 107.924 93.203 109.508 93.203 111.38C93.203 112.964 92.807 114.476 92.015 115.916C91.223 117.356 90.071 118.49 88.559 119.318C90.755 120.038 92.339 121.244 93.311 122.936C94.283 124.628 94.733 126.608 94.661 128.876C94.589 130.964 94.139 132.728 93.311 134.168C92.483 135.608 91.421 136.796 90.125 137.732C88.829 138.632 87.335 139.298 85.643 139.73C83.951 140.162 82.187 140.378 80.351 140.378C76.283 140.378 72.953 139.46 70.361 137.624C67.769 135.788 66.185 132.872 65.609 128.876H73.331C73.583 129.776 73.943 130.514 74.411 131.09C74.915 131.666 75.473 132.134 76.085 132.494C76.733 132.818 77.417 133.052 78.137 133.196C78.857 133.304 79.595 133.358 80.351 133.358C81.215 133.358 82.043 133.268 82.835 133.088C83.627 132.908 84.329 132.62 84.941 132.224C85.553 131.828 86.039 131.306 86.399 130.658C86.759 129.974 86.939 129.146 86.939 128.174C86.939 127.454 86.777 126.788 86.453 126.176C86.165 125.564 85.769 125.114 85.265 124.826C84.617 124.394 83.897 124.124 83.105 124.016C82.349 123.872 81.557 123.8 80.729 123.8H76.895V117.428H79.487C80.423 117.428 81.269 117.32 82.025 117.104C82.781 116.852 83.465 116.474 84.077 115.97C84.509 115.574 84.869 115.124 85.157 114.62C85.445 114.08 85.589 113.45 85.589 112.73C85.589 111.866 85.445 111.146 85.157 110.57C84.869 109.958 84.473 109.49 83.969 109.166C83.465 108.806 82.871 108.554 82.187 108.41C81.503 108.266 80.783 108.194 80.027 108.194C78.659 108.194 77.453 108.554 76.409 109.274C75.365 109.958 74.681 111.056 74.357 112.568H66.689Z" fill="#202020"/>
</svg>
