<svg width="289" height="182" viewBox="0 0 289 182" fill="none" xmlns="http://www.w3.org/2000/svg">
<rect opacity="0.2" x="19.8637" y="0.696289" width="271" height="146" rx="20" transform="rotate(7.61142 19.8637 0.696289)" fill="white"/>
<rect x="9.0004" y="18.002" width="271" height="146" rx="20" fill="white"/>
<path d="M45 66C50.5228 66 55 61.5228 55 56C55 50.4772 50.5228 46 45 46C39.4772 46 35 50.4772 35 56C35 61.5228 39.4772 66 45 66Z" stroke="#9DA7E0" stroke-width="2" stroke-linecap="round" stroke-linejoin="round"/>
<path d="M45 50V56L49 54" stroke="#9DA7E0" stroke-width="2" stroke-linecap="round" stroke-linejoin="round"/>
<path d="M66.6204 63V48.86H72.2404C72.8404 48.86 73.4137 48.9133 73.9604 49.02C74.5204 49.1267 75.0071 49.3133 75.4204 49.58C75.8471 49.8467 76.1871 50.2067 76.4404 50.66C76.6937 51.1133 76.8204 51.6933 76.8204 52.4C76.8204 53.08 76.6804 53.6867 76.4004 54.22C76.1204 54.7533 75.6604 55.1733 75.0204 55.48C75.8871 55.6933 76.5204 56.1 76.9204 56.7C77.3204 57.2867 77.5204 58.0067 77.5204 58.86C77.5204 59.7533 77.3404 60.4733 76.9804 61.02C76.6204 61.5533 76.1604 61.9667 75.6004 62.26C75.0404 62.5533 74.4204 62.7533 73.7404 62.86C73.0737 62.9533 72.4337 63 71.8204 63H66.6204ZM68.9404 50.94V54.82H71.6404C71.9737 54.82 72.3137 54.7933 72.6604 54.74C73.0204 54.6867 73.3404 54.5867 73.6204 54.44C73.9004 54.28 74.1271 54.0733 74.3004 53.82C74.4871 53.5533 74.5804 53.2067 74.5804 52.78C74.5804 52.3667 74.5071 52.04 74.3604 51.8C74.2137 51.5467 74.0204 51.36 73.7804 51.24C73.5404 51.1067 73.2604 51.0267 72.9404 51C72.6337 50.96 72.3137 50.94 71.9804 50.94H68.9404ZM68.9404 60.94H71.7804C72.1404 60.94 72.5204 60.92 72.9204 60.88C73.3337 60.8267 73.7071 60.7267 74.0404 60.58C74.3737 60.42 74.6471 60.2 74.8604 59.92C75.0871 59.64 75.2004 59.26 75.2004 58.78C75.2004 58.38 75.1137 58.0533 74.9404 57.8C74.7804 57.5333 74.5671 57.3333 74.3004 57.2C74.0337 57.0533 73.7337 56.9533 73.4004 56.9C73.0804 56.8467 72.7537 56.82 72.4204 56.82C72.1271 56.82 71.8337 56.82 71.5404 56.82L69.8204 56.84C69.5271 56.84 69.2337 56.84 68.9404 56.84V60.94ZM81.9188 67.1H79.6388V52.46H81.7988L81.9188 53.96C82.3055 53.4133 82.8055 53 83.4188 52.72C84.0455 52.4267 84.6988 52.28 85.3788 52.28C86.0988 52.28 86.7455 52.4133 87.3188 52.68C87.8922 52.9333 88.3788 53.2933 88.7788 53.76C89.1922 54.2267 89.4988 54.7933 89.6988 55.46C89.9122 56.1133 90.0188 56.86 90.0188 57.7C90.0188 58.4867 89.9188 59.2133 89.7188 59.88C89.5188 60.5467 89.2188 61.1267 88.8188 61.62C88.4322 62.1 87.9455 62.4733 87.3588 62.74C86.7855 63.0067 86.0855 63.14 85.2588 63.14C84.6188 63.14 84.0055 63.04 83.4188 62.84C82.8455 62.6267 82.3455 62.28 81.9188 61.8V67.1ZM84.8988 61.16C85.3922 61.16 85.8188 61.0733 86.1788 60.9C86.5388 60.7133 86.8322 60.4667 87.0588 60.16C87.2988 59.8533 87.4722 59.4933 87.5788 59.08C87.6988 58.6667 87.7588 58.22 87.7588 57.74C87.7588 57.26 87.6988 56.8133 87.5788 56.4C87.4722 55.9733 87.2988 55.6067 87.0588 55.3C86.8322 54.9933 86.5322 54.7533 86.1588 54.58C85.7988 54.4067 85.3655 54.32 84.8588 54.32C84.4055 54.32 83.9855 54.4133 83.5988 54.6C83.2255 54.7867 82.9122 55.0333 82.6588 55.34C82.4055 55.6467 82.2122 56.0133 82.0788 56.44C81.9588 56.8533 81.8988 57.28 81.8988 57.72C81.8988 58.2 81.9588 58.6533 82.0788 59.08C82.1988 59.4933 82.3788 59.8533 82.6188 60.16C82.8722 60.4533 83.1855 60.6933 83.5588 60.88C83.9322 61.0667 84.3788 61.16 84.8988 61.16ZM93.9016 58.5C93.9283 58.8867 94.0083 59.2467 94.1416 59.58C94.275 59.9133 94.455 60.2067 94.6816 60.46C94.9083 60.7 95.1883 60.8933 95.5216 61.04C95.8683 61.1867 96.2683 61.26 96.7216 61.26C97.2016 61.26 97.6416 61.1733 98.0416 61C98.455 60.8267 98.755 60.5267 98.9416 60.1H101.282C101.148 60.6333 100.928 61.0933 100.622 61.48C100.328 61.8667 99.975 62.1867 99.5616 62.44C99.1616 62.68 98.715 62.86 98.2216 62.98C97.7416 63.0867 97.2283 63.14 96.6816 63.14C95.8416 63.14 95.1016 63.0133 94.4616 62.76C93.835 62.5067 93.3083 62.14 92.8816 61.66C92.455 61.18 92.135 60.6133 91.9216 59.96C91.7216 59.2933 91.6216 58.5467 91.6216 57.72C91.6216 56.92 91.735 56.1933 91.9616 55.54C92.1883 54.8733 92.515 54.3 92.9416 53.82C93.3816 53.34 93.9083 52.9667 94.5216 52.7C95.135 52.42 95.835 52.28 96.6216 52.28C97.4483 52.28 98.1616 52.42 98.7616 52.7C99.3616 52.9667 99.8616 53.3333 100.262 53.8C100.675 54.2667 100.982 54.8133 101.182 55.44C101.382 56.0667 101.482 56.7467 101.482 57.48C101.482 57.8267 101.462 58.1667 101.422 58.5H93.9016ZM99.2616 56.78C99.2216 55.9533 98.9616 55.3267 98.4816 54.9C98.015 54.4733 97.4016 54.26 96.6416 54.26C96.215 54.26 95.8416 54.3267 95.5216 54.46C95.2016 54.5933 94.9283 54.7733 94.7016 55C94.4883 55.2267 94.315 55.4933 94.1816 55.8C94.0483 56.1067 93.9616 56.4333 93.9216 56.78H99.2616ZM103.545 52.46H106.285L109.465 57.48L112.625 52.46H115.305V63H113.065V55.44L109.725 60.64H109.185L105.785 55.44V63H103.545V52.46ZM126.443 63H124.183V59.4H122.283L119.823 63H117.143L120.003 59.04C119.19 58.84 118.57 58.4733 118.143 57.94C117.73 57.4067 117.523 56.7267 117.523 55.9C117.523 55.2467 117.63 54.7 117.843 54.26C118.07 53.82 118.376 53.4667 118.763 53.2C119.163 52.92 119.616 52.7267 120.123 52.62C120.63 52.5133 121.176 52.46 121.763 52.46H126.443V63ZM124.183 54.36H121.923C121.67 54.36 121.416 54.38 121.163 54.42C120.91 54.4467 120.676 54.52 120.463 54.64C120.263 54.7467 120.103 54.9 119.983 55.1C119.863 55.3 119.803 55.54 119.803 55.82C119.803 55.86 119.803 55.8933 119.803 55.92C119.803 56.2667 119.903 56.56 120.103 56.8C120.303 57.04 120.563 57.2133 120.883 57.32C121.203 57.4133 121.496 57.4733 121.763 57.5C122.03 57.5133 122.296 57.52 122.563 57.52H124.183V54.36ZM136.606 67.1H134.326V52.46H136.486L136.606 53.96C136.993 53.4133 137.493 53 138.106 52.72C138.733 52.4267 139.386 52.28 140.066 52.28C140.786 52.28 141.433 52.4133 142.006 52.68C142.58 52.9333 143.066 53.2933 143.466 53.76C143.88 54.2267 144.186 54.7933 144.386 55.46C144.6 56.1133 144.706 56.86 144.706 57.7C144.706 58.4867 144.606 59.2133 144.406 59.88C144.206 60.5467 143.906 61.1267 143.506 61.62C143.12 62.1 142.633 62.4733 142.046 62.74C141.473 63.0067 140.773 63.14 139.946 63.14C139.306 63.14 138.693 63.04 138.106 62.84C137.533 62.6267 137.033 62.28 136.606 61.8V67.1ZM139.586 61.16C140.08 61.16 140.506 61.0733 140.866 60.9C141.226 60.7133 141.52 60.4667 141.746 60.16C141.986 59.8533 142.16 59.4933 142.266 59.08C142.386 58.6667 142.446 58.22 142.446 57.74C142.446 57.26 142.386 56.8133 142.266 56.4C142.16 55.9733 141.986 55.6067 141.746 55.3C141.52 54.9933 141.22 54.7533 140.846 54.58C140.486 54.4067 140.053 54.32 139.546 54.32C139.093 54.32 138.673 54.4133 138.286 54.6C137.913 54.7867 137.6 55.0333 137.346 55.34C137.093 55.6467 136.9 56.0133 136.766 56.44C136.646 56.8533 136.586 57.28 136.586 57.72C136.586 58.2 136.646 58.6533 136.766 59.08C136.886 59.4933 137.066 59.8533 137.306 60.16C137.56 60.4533 137.873 60.6933 138.246 60.88C138.62 61.0667 139.066 61.16 139.586 61.16ZM148.589 58.5C148.616 58.8867 148.696 59.2467 148.829 59.58C148.962 59.9133 149.142 60.2067 149.369 60.46C149.596 60.7 149.876 60.8933 150.209 61.04C150.556 61.1867 150.956 61.26 151.409 61.26C151.889 61.26 152.329 61.1733 152.729 61C153.142 60.8267 153.442 60.5267 153.629 60.1H155.969C155.836 60.6333 155.616 61.0933 155.309 61.48C155.016 61.8667 154.662 62.1867 154.249 62.44C153.849 62.68 153.402 62.86 152.909 62.98C152.429 63.0867 151.916 63.14 151.369 63.14C150.529 63.14 149.789 63.0133 149.149 62.76C148.522 62.5067 147.996 62.14 147.569 61.66C147.142 61.18 146.822 60.6133 146.609 59.96C146.409 59.2933 146.309 58.5467 146.309 57.72C146.309 56.92 146.422 56.1933 146.649 55.54C146.876 54.8733 147.202 54.3 147.629 53.82C148.069 53.34 148.596 52.9667 149.209 52.7C149.822 52.42 150.522 52.28 151.309 52.28C152.136 52.28 152.849 52.42 153.449 52.7C154.049 52.9667 154.549 53.3333 154.949 53.8C155.362 54.2667 155.669 54.8133 155.869 55.44C156.069 56.0667 156.169 56.7467 156.169 57.48C156.169 57.8267 156.149 58.1667 156.109 58.5H148.589ZM153.949 56.78C153.909 55.9533 153.649 55.3267 153.169 54.9C152.702 54.4733 152.089 54.26 151.329 54.26C150.902 54.26 150.529 54.3267 150.209 54.46C149.889 54.5933 149.616 54.7733 149.389 55C149.176 55.2267 149.002 55.4933 148.869 55.8C148.736 56.1067 148.649 56.4333 148.609 56.78H153.949ZM165.033 61.7C164.686 62.1933 164.226 62.56 163.653 62.8C163.079 63.0267 162.439 63.14 161.733 63.14C161.173 63.14 160.659 63.0733 160.193 62.94C159.739 62.8067 159.339 62.6067 158.993 62.34C158.646 62.06 158.373 61.72 158.173 61.32C157.973 60.9067 157.873 60.44 157.873 59.92C157.873 59.3467 157.986 58.86 158.213 58.46C158.439 58.0467 158.746 57.7133 159.133 57.46C159.533 57.2067 159.999 57.02 160.533 56.9C161.066 56.7667 161.626 56.7 162.213 56.7H164.913C164.913 55.9267 164.739 55.3267 164.393 54.9C164.046 54.4733 163.439 54.2533 162.573 54.24C162.066 54.24 161.626 54.3267 161.253 54.5C160.893 54.6733 160.653 54.96 160.533 55.36H158.193C158.273 54.8 158.453 54.3267 158.733 53.94C159.026 53.5533 159.373 53.2333 159.773 52.98C160.186 52.7267 160.639 52.5467 161.133 52.44C161.639 52.3333 162.146 52.28 162.653 52.28C163.306 52.28 163.913 52.3667 164.473 52.54C165.033 52.7133 165.519 53.0067 165.933 53.42C166.399 53.9 166.713 54.4733 166.873 55.14C167.033 55.8067 167.113 56.5333 167.113 57.32V63H165.133L165.033 61.7ZM164.913 58.32H162.713C162.326 58.32 161.939 58.3533 161.553 58.42C161.166 58.4733 160.833 58.6133 160.553 58.84C160.286 59.0533 160.153 59.3667 160.153 59.78C160.153 60.2867 160.333 60.6733 160.693 60.94C161.066 61.1933 161.519 61.32 162.053 61.32C162.466 61.32 162.846 61.2667 163.193 61.16C163.553 61.0533 163.859 60.88 164.113 60.64C164.366 60.3867 164.559 60.0733 164.693 59.7C164.839 59.3133 164.913 58.8533 164.913 58.32ZM169.561 63V52.46H171.821V56.76H173.441L176.141 52.46H178.741L175.401 57.48L179.001 63H176.361L173.581 58.74H171.821V63H169.561ZM187.143 61.06V52.46H189.423V61.06H190.843V66.08H188.603V63H180.283V52.46H182.543V61.06H187.143ZM194.552 63H192.432V52.46H194.712V59.7L200.072 52.46H202.132V63H199.852V55.9C199.838 55.9267 198.072 58.2933 194.552 63ZM206.739 63H204.619V52.46H206.899V59.7L212.259 52.46H214.319V63H212.039V55.9C212.026 55.9267 210.259 58.2933 206.739 63ZM66.2404 74.46H68.9804L72.1604 79.48L75.3204 74.46H78.0004V85H75.7604V77.44L72.4204 82.64H71.8804L68.4804 77.44V85H66.2404V74.46ZM82.3782 80.5C82.4049 80.8867 82.4849 81.2467 82.6182 81.58C82.7515 81.9133 82.9315 82.2067 83.1582 82.46C83.3849 82.7 83.6649 82.8933 83.9982 83.04C84.3449 83.1867 84.7449 83.26 85.1982 83.26C85.6782 83.26 86.1182 83.1733 86.5182 83C86.9315 82.8267 87.2315 82.5267 87.4182 82.1H89.7582C89.6249 82.6333 89.4049 83.0933 89.0982 83.48C88.8049 83.8667 88.4515 84.1867 88.0382 84.44C87.6382 84.68 87.1915 84.86 86.6982 84.98C86.2182 85.0867 85.7049 85.14 85.1582 85.14C84.3182 85.14 83.5782 85.0133 82.9382 84.76C82.3115 84.5067 81.7849 84.14 81.3582 83.66C80.9315 83.18 80.6115 82.6133 80.3982 81.96C80.1982 81.2933 80.0982 80.5467 80.0982 79.72C80.0982 78.92 80.2115 78.1933 80.4382 77.54C80.6649 76.8733 80.9915 76.3 81.4182 75.82C81.8582 75.34 82.3849 74.9667 82.9982 74.7C83.6115 74.42 84.3115 74.28 85.0982 74.28C85.9249 74.28 86.6382 74.42 87.2382 74.7C87.8382 74.9667 88.3382 75.3333 88.7382 75.8C89.1515 76.2667 89.4582 76.8133 89.6582 77.44C89.8582 78.0667 89.9582 78.7467 89.9582 79.48C89.9582 79.8267 89.9382 80.1667 89.8982 80.5H82.3782ZM87.7382 78.78C87.6982 77.9533 87.4382 77.3267 86.9582 76.9C86.4915 76.4733 85.8782 76.26 85.1182 76.26C84.6915 76.26 84.3182 76.3267 83.9982 76.46C83.6782 76.5933 83.4049 76.7733 83.1782 77C82.9649 77.2267 82.7915 77.4933 82.6582 77.8C82.5249 78.1067 82.4382 78.4333 82.3982 78.78H87.7382ZM92.0216 85V74.46H94.3016V78.8H98.9816V74.46H101.262V85H98.9816V80.78H94.3016V85H92.0216ZM105.62 80.5C105.647 80.8867 105.727 81.2467 105.86 81.58C105.994 81.9133 106.174 82.2067 106.4 82.46C106.627 82.7 106.907 82.8933 107.24 83.04C107.587 83.1867 107.987 83.26 108.44 83.26C108.92 83.26 109.36 83.1733 109.76 83C110.174 82.8267 110.474 82.5267 110.66 82.1H113C112.867 82.6333 112.647 83.0933 112.34 83.48C112.047 83.8667 111.694 84.1867 111.28 84.44C110.88 84.68 110.434 84.86 109.94 84.98C109.46 85.0867 108.947 85.14 108.4 85.14C107.56 85.14 106.82 85.0133 106.18 84.76C105.554 84.5067 105.027 84.14 104.6 83.66C104.174 83.18 103.854 82.6133 103.64 81.96C103.44 81.2933 103.34 80.5467 103.34 79.72C103.34 78.92 103.454 78.1933 103.68 77.54C103.907 76.8733 104.234 76.3 104.66 75.82C105.1 75.34 105.627 74.9667 106.24 74.7C106.854 74.42 107.554 74.28 108.34 74.28C109.167 74.28 109.88 74.42 110.48 74.7C111.08 74.9667 111.58 75.3333 111.98 75.8C112.394 76.2667 112.7 76.8133 112.9 77.44C113.1 78.0667 113.2 78.7467 113.2 79.48C113.2 79.8267 113.18 80.1667 113.14 80.5H105.62ZM110.98 78.78C110.94 77.9533 110.68 77.3267 110.2 76.9C109.734 76.4733 109.12 76.26 108.36 76.26C107.934 76.26 107.56 76.3267 107.24 76.46C106.92 76.5933 106.647 76.7733 106.42 77C106.207 77.2267 106.034 77.4933 105.9 77.8C105.767 78.1067 105.68 78.4333 105.64 78.78H110.98ZM117.144 80.5C117.171 80.8867 117.251 81.2467 117.384 81.58C117.517 81.9133 117.697 82.2067 117.924 82.46C118.151 82.7 118.431 82.8933 118.764 83.04C119.111 83.1867 119.511 83.26 119.964 83.26C120.444 83.26 120.884 83.1733 121.284 83C121.697 82.8267 121.997 82.5267 122.184 82.1H124.524C124.391 82.6333 124.171 83.0933 123.864 83.48C123.571 83.8667 123.217 84.1867 122.804 84.44C122.404 84.68 121.957 84.86 121.464 84.98C120.984 85.0867 120.471 85.14 119.924 85.14C119.084 85.14 118.344 85.0133 117.704 84.76C117.077 84.5067 116.551 84.14 116.124 83.66C115.697 83.18 115.377 82.6133 115.164 81.96C114.964 81.2933 114.864 80.5467 114.864 79.72C114.864 78.92 114.977 78.1933 115.204 77.54C115.431 76.8733 115.757 76.3 116.184 75.82C116.624 75.34 117.151 74.9667 117.764 74.7C118.377 74.42 119.077 74.28 119.864 74.28C120.691 74.28 121.404 74.42 122.004 74.7C122.604 74.9667 123.104 75.3333 123.504 75.8C123.917 76.2667 124.224 76.8133 124.424 77.44C124.624 78.0667 124.724 78.7467 124.724 79.48C124.724 79.8267 124.704 80.1667 124.664 80.5H117.144ZM122.504 78.78C122.464 77.9533 122.204 77.3267 121.724 76.9C121.257 76.4733 120.644 76.26 119.884 76.26C119.457 76.26 119.084 76.3267 118.764 76.46C118.444 76.5933 118.171 76.7733 117.944 77C117.731 77.2267 117.557 77.4933 117.424 77.8C117.291 78.1067 117.204 78.4333 117.164 78.78H122.504Z" fill="#202020"/>
<path d="M105.93 106.095H107.985L110.37 109.86L112.74 106.095H114.75V114H113.07V108.33L110.565 112.23H110.16L107.61 108.33V114H105.93V106.095ZM118.214 114H116.624V106.095H118.334V111.525L122.354 106.095H123.899V114H122.189V108.675C122.179 108.695 120.854 110.47 118.214 114ZM125.764 114V106.095H127.474V109.35H130.984V106.095H132.694V114H130.984V110.835H127.474V114H125.764ZM140.223 106.095H142.098L139.818 112.74C139.528 113.56 139.263 114.285 139.023 114.915C138.793 115.545 138.518 116.07 138.198 116.49C137.878 116.91 137.483 117.225 137.013 117.435C136.553 117.655 135.948 117.765 135.198 117.765H134.943V116.235C134.983 116.235 135.023 116.235 135.063 116.235C135.363 116.235 135.628 116.2 135.858 116.13C136.098 116.06 136.313 115.955 136.503 115.815C136.693 115.675 136.858 115.49 136.998 115.26C137.138 115.04 137.268 114.785 137.388 114.495L133.803 106.095H135.813L138.273 112.35L140.223 106.095ZM149.449 106.095V107.58H146.779V114H145.084V107.58H142.414V106.095H149.449ZM110.385 119.805C109.885 120.415 109.46 121.035 109.11 121.665C108.76 122.285 108.475 122.915 108.255 123.555C108.035 124.195 107.875 124.84 107.775 125.49C107.675 126.14 107.62 126.79 107.61 127.44C107.63 128.76 107.85 130.055 108.27 131.325C108.69 132.585 109.39 133.825 110.37 135.045H108.45C108.02 134.505 107.645 133.925 107.325 133.305C107.005 132.695 106.74 132.065 106.53 131.415C106.32 130.755 106.16 130.09 106.05 129.42C105.95 128.75 105.9 128.09 105.9 127.44C105.9 126.79 105.95 126.13 106.05 125.46C106.16 124.78 106.32 124.11 106.53 123.45C106.75 122.79 107.02 122.155 107.34 121.545C107.66 120.925 108.035 120.345 108.465 119.805H110.385ZM110.794 124.095H114.169C114.519 124.095 114.874 124.115 115.234 124.155C115.594 124.185 115.919 124.27 116.209 124.41C116.509 124.55 116.749 124.755 116.929 125.025C117.119 125.285 117.219 125.64 117.229 126.09C117.229 126.44 117.149 126.765 116.989 127.065C116.829 127.365 116.574 127.61 116.224 127.8C116.704 127.93 117.054 128.16 117.274 128.49C117.504 128.81 117.619 129.195 117.619 129.645C117.619 130.065 117.534 130.43 117.364 130.74C117.194 131.04 116.969 131.285 116.689 131.475C116.409 131.655 116.084 131.79 115.714 131.88C115.344 131.96 114.954 132 114.544 132H110.794V124.095ZM112.519 125.52V127.335H113.554C113.784 127.335 114.019 127.335 114.259 127.335C114.509 127.325 114.729 127.29 114.919 127.23C115.119 127.17 115.279 127.075 115.399 126.945C115.529 126.815 115.594 126.63 115.594 126.39C115.594 126.18 115.544 126.02 115.444 125.91C115.354 125.79 115.239 125.7 115.099 125.64C114.959 125.58 114.799 125.545 114.619 125.535C114.449 125.525 114.289 125.52 114.139 125.52H112.519ZM114.259 130.56C114.459 130.56 114.654 130.55 114.844 130.53C115.044 130.51 115.219 130.465 115.369 130.395C115.529 130.315 115.659 130.215 115.759 130.095C115.859 129.965 115.909 129.795 115.909 129.585C115.909 129.205 115.789 128.95 115.549 128.82C115.319 128.69 115.034 128.625 114.694 128.625H112.519V130.56H114.259ZM124.955 135.075H123.245V124.095H124.865L124.955 125.22C125.245 124.81 125.62 124.5 126.08 124.29C126.55 124.07 127.04 123.96 127.55 123.96C128.09 123.96 128.575 124.06 129.005 124.26C129.435 124.45 129.8 124.72 130.1 125.07C130.41 125.42 130.64 125.845 130.79 126.345C130.95 126.835 131.03 127.395 131.03 128.025C131.03 128.615 130.955 129.16 130.805 129.66C130.655 130.16 130.43 130.595 130.13 130.965C129.84 131.325 129.475 131.605 129.035 131.805C128.605 132.005 128.08 132.105 127.46 132.105C126.98 132.105 126.52 132.03 126.08 131.88C125.65 131.72 125.275 131.46 124.955 131.1V135.075ZM127.19 130.62C127.56 130.62 127.88 130.555 128.15 130.425C128.42 130.285 128.64 130.1 128.81 129.87C128.99 129.64 129.12 129.37 129.2 129.06C129.29 128.75 129.335 128.415 129.335 128.055C129.335 127.695 129.29 127.36 129.2 127.05C129.12 126.73 128.99 126.455 128.81 126.225C128.64 125.995 128.415 125.815 128.135 125.685C127.865 125.555 127.54 125.49 127.16 125.49C126.82 125.49 126.505 125.56 126.215 125.7C125.935 125.84 125.7 126.025 125.51 126.255C125.32 126.485 125.175 126.76 125.075 127.08C124.985 127.39 124.94 127.71 124.94 128.04C124.94 128.4 124.985 128.74 125.075 129.06C125.165 129.37 125.3 129.64 125.48 129.87C125.67 130.09 125.905 130.27 126.185 130.41C126.465 130.55 126.8 130.62 127.19 130.62ZM137.632 131.025C137.372 131.395 137.027 131.67 136.597 131.85C136.167 132.02 135.687 132.105 135.157 132.105C134.737 132.105 134.352 132.055 134.002 131.955C133.662 131.855 133.362 131.705 133.102 131.505C132.842 131.295 132.637 131.04 132.487 130.74C132.337 130.43 132.262 130.08 132.262 129.69C132.262 129.26 132.347 128.895 132.517 128.595C132.687 128.285 132.917 128.035 133.207 127.845C133.507 127.655 133.857 127.515 134.257 127.425C134.657 127.325 135.077 127.275 135.517 127.275H137.542C137.542 126.695 137.412 126.245 137.152 125.925C136.892 125.605 136.437 125.44 135.787 125.43C135.407 125.43 135.077 125.495 134.797 125.625C134.527 125.755 134.347 125.97 134.257 126.27H132.502C132.562 125.85 132.697 125.495 132.907 125.205C133.127 124.915 133.387 124.675 133.687 124.485C133.997 124.295 134.337 124.16 134.707 124.08C135.087 124 135.467 123.96 135.847 123.96C136.337 123.96 136.792 124.025 137.212 124.155C137.632 124.285 137.997 124.505 138.307 124.815C138.657 125.175 138.892 125.605 139.012 126.105C139.132 126.605 139.192 127.15 139.192 127.74V132H137.707L137.632 131.025ZM137.542 128.49H135.892C135.602 128.49 135.312 128.515 135.022 128.565C134.732 128.605 134.482 128.71 134.272 128.88C134.072 129.04 133.972 129.275 133.972 129.585C133.972 129.965 134.107 130.255 134.377 130.455C134.657 130.645 134.997 130.74 135.397 130.74C135.707 130.74 135.992 130.7 136.252 130.62C136.522 130.54 136.752 130.41 136.942 130.23C137.132 130.04 137.277 129.805 137.377 129.525C137.487 129.235 137.542 128.89 137.542 128.49ZM142.378 125.73C142.698 125.33 143.098 125.045 143.578 124.875C144.058 124.695 144.543 124.605 145.033 124.605C145.573 124.605 146.053 124.69 146.473 124.86C146.903 125.03 147.268 125.27 147.568 125.58C147.868 125.89 148.098 126.265 148.258 126.705C148.418 127.135 148.498 127.62 148.498 128.16C148.498 128.74 148.408 129.275 148.228 129.765C148.058 130.255 147.803 130.675 147.463 131.025C147.133 131.365 146.728 131.63 146.248 131.82C145.778 132.01 145.243 132.105 144.643 132.105C143.853 132.095 143.203 131.935 142.693 131.625C142.193 131.315 141.798 130.915 141.508 130.425C141.218 129.935 141.018 129.385 140.908 128.775C140.798 128.155 140.743 127.53 140.743 126.9C140.743 126.27 140.788 125.625 140.878 124.965C140.978 124.305 141.173 123.72 141.463 123.21C141.703 122.81 141.978 122.495 142.288 122.265C142.608 122.025 142.958 121.845 143.338 121.725C143.718 121.595 144.123 121.5 144.553 121.44C144.983 121.38 145.428 121.32 145.888 121.26C146.238 121.22 146.593 121.18 146.953 121.14C147.323 121.1 147.683 121.02 148.033 120.9V122.535C147.853 122.615 147.603 122.68 147.283 122.73C146.963 122.77 146.623 122.81 146.263 122.85C145.903 122.88 145.548 122.915 145.198 122.955C144.848 122.985 144.538 123.02 144.268 123.06C143.948 123.11 143.663 123.22 143.413 123.39C143.173 123.55 142.978 123.75 142.828 123.99C142.678 124.22 142.568 124.49 142.498 124.8C142.428 125.1 142.388 125.41 142.378 125.73ZM144.688 130.62C145.028 130.62 145.328 130.555 145.588 130.425C145.858 130.295 146.083 130.13 146.263 129.93C146.443 129.72 146.578 129.48 146.668 129.21C146.758 128.93 146.803 128.64 146.803 128.34C146.803 128.03 146.753 127.74 146.653 127.47C146.563 127.19 146.428 126.955 146.248 126.765C146.078 126.565 145.868 126.41 145.618 126.3C145.368 126.19 145.083 126.135 144.763 126.135C144.433 126.135 144.133 126.19 143.863 126.3C143.603 126.4 143.378 126.55 143.188 126.75C143.008 126.94 142.863 127.17 142.753 127.44C142.643 127.71 142.583 128 142.573 128.31C142.573 128.61 142.613 128.9 142.693 129.18C142.773 129.45 142.898 129.69 143.068 129.9C143.248 130.11 143.468 130.285 143.728 130.425C143.998 130.555 144.318 130.62 144.688 130.62ZM153.548 123.96C154.178 123.96 154.733 124.06 155.213 124.26C155.693 124.46 156.098 124.74 156.428 125.1C156.768 125.45 157.023 125.875 157.193 126.375C157.363 126.875 157.448 127.43 157.448 128.04C157.448 128.66 157.363 129.22 157.193 129.72C157.033 130.21 156.788 130.635 156.458 130.995C156.128 131.355 155.718 131.63 155.228 131.82C154.748 132.01 154.188 132.105 153.548 132.105C152.918 132.105 152.363 132.01 151.883 131.82C151.403 131.62 150.998 131.345 150.668 130.995C150.348 130.635 150.103 130.205 149.933 129.705C149.773 129.205 149.693 128.65 149.693 128.04C149.693 127.43 149.773 126.875 149.933 126.375C150.103 125.875 150.353 125.45 150.683 125.1C151.013 124.74 151.418 124.46 151.898 124.26C152.378 124.06 152.928 123.96 153.548 123.96ZM153.548 130.62C153.938 130.62 154.268 130.555 154.538 130.425C154.818 130.285 155.043 130.1 155.213 129.87C155.393 129.64 155.523 129.37 155.603 129.06C155.693 128.75 155.738 128.415 155.738 128.055C155.738 127.695 155.693 127.36 155.603 127.05C155.523 126.73 155.393 126.455 155.213 126.225C155.043 125.995 154.818 125.815 154.538 125.685C154.268 125.555 153.938 125.49 153.548 125.49C153.168 125.49 152.838 125.555 152.558 125.685C152.288 125.815 152.063 125.995 151.883 126.225C151.713 126.455 151.583 126.73 151.493 127.05C151.413 127.36 151.373 127.695 151.373 128.055C151.373 128.415 151.413 128.75 151.493 129.06C151.583 129.37 151.713 129.64 151.883 129.87C152.063 130.1 152.288 130.285 152.558 130.425C152.838 130.555 153.168 130.62 153.548 130.62ZM158.657 124.095H160.367V125.655C160.367 126.055 160.382 126.39 160.412 126.66C160.452 126.93 160.532 127.155 160.652 127.335C160.772 127.505 160.947 127.63 161.177 127.71C161.407 127.78 161.717 127.815 162.107 127.815C162.357 127.815 162.627 127.805 162.917 127.785C163.207 127.755 163.447 127.725 163.637 127.695V124.095H165.332V132H163.637V129.18C163.407 129.22 163.137 129.25 162.827 129.27C162.517 129.29 162.232 129.3 161.972 129.3C161.862 129.3 161.752 129.3 161.642 129.3C161.162 129.29 160.737 129.23 160.367 129.12C159.997 129 159.682 128.82 159.422 128.58C159.172 128.33 158.982 128 158.852 127.59C158.722 127.18 158.657 126.675 158.657 126.075V124.095ZM168.615 128.625C168.635 128.915 168.695 129.185 168.795 129.435C168.895 129.685 169.03 129.905 169.2 130.095C169.37 130.275 169.58 130.42 169.83 130.53C170.09 130.64 170.39 130.695 170.73 130.695C171.09 130.695 171.42 130.63 171.72 130.5C172.03 130.37 172.255 130.145 172.395 129.825H174.15C174.05 130.225 173.885 130.57 173.655 130.86C173.435 131.15 173.17 131.39 172.86 131.58C172.56 131.76 172.225 131.895 171.855 131.985C171.495 132.065 171.11 132.105 170.7 132.105C170.07 132.105 169.515 132.01 169.035 131.82C168.565 131.63 168.17 131.355 167.85 130.995C167.53 130.635 167.29 130.21 167.13 129.72C166.98 129.22 166.905 128.66 166.905 128.04C166.905 127.44 166.99 126.895 167.16 126.405C167.33 125.905 167.575 125.475 167.895 125.115C168.225 124.755 168.62 124.475 169.08 124.275C169.54 124.065 170.065 123.96 170.655 123.96C171.275 123.96 171.81 124.065 172.26 124.275C172.71 124.475 173.085 124.75 173.385 125.1C173.695 125.45 173.925 125.86 174.075 126.33C174.225 126.8 174.3 127.31 174.3 127.86C174.3 128.12 174.285 128.375 174.255 128.625H168.615ZM172.635 127.335C172.605 126.715 172.41 126.245 172.05 125.925C171.7 125.605 171.24 125.445 170.67 125.445C170.35 125.445 170.07 125.495 169.83 125.595C169.59 125.695 169.385 125.83 169.215 126C169.055 126.17 168.925 126.37 168.825 126.6C168.725 126.83 168.66 127.075 168.63 127.335H172.635ZM177.257 128.625C177.277 128.915 177.337 129.185 177.437 129.435C177.537 129.685 177.672 129.905 177.842 130.095C178.012 130.275 178.222 130.42 178.472 130.53C178.732 130.64 179.032 130.695 179.372 130.695C179.732 130.695 180.062 130.63 180.362 130.5C180.672 130.37 180.897 130.145 181.037 129.825H182.792C182.692 130.225 182.527 130.57 182.297 130.86C182.077 131.15 181.812 131.39 181.502 131.58C181.202 131.76 180.867 131.895 180.497 131.985C180.137 132.065 179.752 132.105 179.342 132.105C178.712 132.105 178.157 132.01 177.677 131.82C177.207 131.63 176.812 131.355 176.492 130.995C176.172 130.635 175.932 130.21 175.772 129.72C175.622 129.22 175.547 128.66 175.547 128.04C175.547 127.44 175.632 126.895 175.802 126.405C175.972 125.905 176.217 125.475 176.537 125.115C176.867 124.755 177.262 124.475 177.722 124.275C178.182 124.065 178.707 123.96 179.297 123.96C179.917 123.96 180.452 124.065 180.902 124.275C181.352 124.475 181.727 124.75 182.027 125.1C182.337 125.45 182.567 125.86 182.717 126.33C182.867 126.8 182.942 127.31 182.942 127.86C182.942 128.12 182.927 128.375 182.897 128.625H177.257ZM181.277 127.335C181.247 126.715 181.052 126.245 180.692 125.925C180.342 125.605 179.882 125.445 179.312 125.445C178.992 125.445 178.712 125.495 178.472 125.595C178.232 125.695 178.027 125.83 177.857 126C177.697 126.17 177.567 126.37 177.467 126.6C177.367 126.83 177.302 127.075 177.272 127.335H181.277ZM188.533 124.095H191.908C192.258 124.095 192.613 124.115 192.973 124.155C193.333 124.185 193.658 124.27 193.948 124.41C194.248 124.55 194.488 124.755 194.668 125.025C194.858 125.285 194.958 125.64 194.968 126.09C194.968 126.44 194.888 126.765 194.728 127.065C194.568 127.365 194.313 127.61 193.963 127.8C194.443 127.93 194.793 128.16 195.013 128.49C195.243 128.81 195.358 129.195 195.358 129.645C195.358 130.065 195.273 130.43 195.103 130.74C194.933 131.04 194.708 131.285 194.428 131.475C194.148 131.655 193.823 131.79 193.453 131.88C193.083 131.96 192.693 132 192.283 132H188.533V124.095ZM190.258 125.52V127.335H191.293C191.523 127.335 191.758 127.335 191.998 127.335C192.248 127.325 192.468 127.29 192.658 127.23C192.858 127.17 193.018 127.075 193.138 126.945C193.268 126.815 193.333 126.63 193.333 126.39C193.333 126.18 193.283 126.02 193.183 125.91C193.093 125.79 192.978 125.7 192.838 125.64C192.698 125.58 192.538 125.545 192.358 125.535C192.188 125.525 192.028 125.52 191.878 125.52H190.258ZM191.998 130.56C192.198 130.56 192.393 130.55 192.583 130.53C192.783 130.51 192.958 130.465 193.108 130.395C193.268 130.315 193.398 130.215 193.498 130.095C193.598 129.965 193.648 129.795 193.648 129.585C193.648 129.205 193.528 128.95 193.288 128.82C193.058 128.69 192.773 128.625 192.433 128.625H190.258V130.56H191.998ZM198.651 135.075H196.941V124.095H198.561L198.651 125.22C198.941 124.81 199.316 124.5 199.776 124.29C200.246 124.07 200.736 123.96 201.246 123.96C201.786 123.96 202.271 124.06 202.701 124.26C203.131 124.45 203.496 124.72 203.796 125.07C204.106 125.42 204.336 125.845 204.486 126.345C204.646 126.835 204.726 127.395 204.726 128.025C204.726 128.615 204.651 129.16 204.501 129.66C204.351 130.16 204.126 130.595 203.826 130.965C203.536 131.325 203.171 131.605 202.731 131.805C202.301 132.005 201.776 132.105 201.156 132.105C200.676 132.105 200.216 132.03 199.776 131.88C199.346 131.72 198.971 131.46 198.651 131.1V135.075ZM200.886 130.62C201.256 130.62 201.576 130.555 201.846 130.425C202.116 130.285 202.336 130.1 202.506 129.87C202.686 129.64 202.816 129.37 202.896 129.06C202.986 128.75 203.031 128.415 203.031 128.055C203.031 127.695 202.986 127.36 202.896 127.05C202.816 126.73 202.686 126.455 202.506 126.225C202.336 125.995 202.111 125.815 201.831 125.685C201.561 125.555 201.236 125.49 200.856 125.49C200.516 125.49 200.201 125.56 199.911 125.7C199.631 125.84 199.396 126.025 199.206 126.255C199.016 126.485 198.871 126.76 198.771 127.08C198.681 127.39 198.636 127.71 198.636 128.04C198.636 128.4 198.681 128.74 198.771 129.06C198.861 129.37 198.996 129.64 199.176 129.87C199.366 130.09 199.601 130.27 199.881 130.41C200.161 130.55 200.496 130.62 200.886 130.62ZM207.638 128.625C207.658 128.915 207.718 129.185 207.818 129.435C207.918 129.685 208.053 129.905 208.223 130.095C208.393 130.275 208.603 130.42 208.853 130.53C209.113 130.64 209.413 130.695 209.753 130.695C210.113 130.695 210.443 130.63 210.743 130.5C211.053 130.37 211.278 130.145 211.418 129.825H213.173C213.073 130.225 212.908 130.57 212.678 130.86C212.458 131.15 212.193 131.39 211.883 131.58C211.583 131.76 211.248 131.895 210.878 131.985C210.518 132.065 210.133 132.105 209.723 132.105C209.093 132.105 208.538 132.01 208.058 131.82C207.588 131.63 207.193 131.355 206.873 130.995C206.553 130.635 206.313 130.21 206.153 129.72C206.003 129.22 205.928 128.66 205.928 128.04C205.928 127.44 206.013 126.895 206.183 126.405C206.353 125.905 206.598 125.475 206.918 125.115C207.248 124.755 207.643 124.475 208.103 124.275C208.563 124.065 209.088 123.96 209.678 123.96C210.298 123.96 210.833 124.065 211.283 124.275C211.733 124.475 212.108 124.75 212.408 125.1C212.718 125.45 212.948 125.86 213.098 126.33C213.248 126.8 213.323 127.31 213.323 127.86C213.323 128.12 213.308 128.375 213.278 128.625H207.638ZM211.658 127.335C211.628 126.715 211.433 126.245 211.073 125.925C210.723 125.605 210.263 125.445 209.693 125.445C209.373 125.445 209.093 125.495 208.853 125.595C208.613 125.695 208.408 125.83 208.238 126C208.078 126.17 207.948 126.37 207.848 126.6C207.748 126.83 207.683 127.075 207.653 127.335H211.658ZM214.871 124.095H216.926L219.311 127.86L221.681 124.095H223.691V132H222.011V126.33L219.506 130.23H219.101L216.551 126.33V132H214.871V124.095ZM232.044 132H230.349V129.3H228.924L227.079 132H225.069L227.214 129.03C226.604 128.88 226.139 128.605 225.819 128.205C225.509 127.805 225.354 127.295 225.354 126.675C225.354 126.185 225.434 125.775 225.594 125.445C225.764 125.115 225.994 124.85 226.284 124.65C226.584 124.44 226.924 124.295 227.304 124.215C227.684 124.135 228.094 124.095 228.534 124.095H232.044V132ZM230.349 125.52H228.654C228.464 125.52 228.274 125.535 228.084 125.565C227.894 125.585 227.719 125.64 227.559 125.73C227.409 125.81 227.289 125.925 227.199 126.075C227.109 126.225 227.064 126.405 227.064 126.615C227.064 126.645 227.064 126.67 227.064 126.69C227.064 126.95 227.139 127.17 227.289 127.35C227.439 127.53 227.634 127.66 227.874 127.74C228.114 127.81 228.334 127.855 228.534 127.875C228.734 127.885 228.934 127.89 229.134 127.89H230.349V125.52ZM232.459 135.045C233.449 133.825 234.154 132.58 234.574 131.31C234.994 130.03 235.214 128.735 235.234 127.425C235.214 126.105 234.994 124.81 234.574 123.54C234.154 122.27 233.454 121.025 232.474 119.805H234.379C234.809 120.345 235.184 120.925 235.504 121.545C235.824 122.155 236.089 122.79 236.299 123.45C236.519 124.1 236.679 124.765 236.779 125.445C236.889 126.115 236.944 126.775 236.944 127.425C236.944 128.075 236.889 128.74 236.779 129.42C236.669 130.09 236.504 130.755 236.284 131.415C236.074 132.065 235.809 132.695 235.489 133.305C235.169 133.925 234.794 134.505 234.364 135.045H232.459Z" fill="#72798C"/>
<path d="M68.2404 123.584L70.6704 101.768H93.8904V108.572H76.9884L75.9084 116.456C77.1324 115.844 78.2844 115.412 79.3644 115.16C80.4804 114.872 81.7584 114.746 83.1984 114.782C85.0704 114.818 86.7624 115.124 88.2744 115.7C89.8224 116.276 91.1364 117.104 92.2164 118.184C93.2964 119.264 94.1244 120.56 94.7004 122.072C95.2764 123.548 95.5644 125.222 95.5644 127.094C95.5644 129.182 95.2044 131.054 94.4844 132.71C93.7644 134.366 92.7744 135.77 91.5144 136.922C90.1824 138.074 88.6704 138.938 86.9784 139.514C85.3224 140.09 83.4144 140.378 81.2544 140.378C77.3304 140.378 74.1984 139.478 71.8584 137.678C69.5184 135.878 68.1324 132.944 67.7004 128.876H75.4224C75.7464 130.424 76.4304 131.54 77.4744 132.224C78.5544 132.908 79.7604 133.286 81.0924 133.358C83.0004 133.43 84.5664 132.98 85.7904 132.008C87.0144 131.036 87.6444 129.506 87.6804 127.418C87.7164 125.366 87.1224 123.818 85.8984 122.774C84.6744 121.73 83.1264 121.244 81.2544 121.316C80.1384 121.352 79.0944 121.568 78.1224 121.964C77.1864 122.36 76.3584 122.9 75.6384 123.584H68.2404Z" fill="#202020"/>
</svg>
